<?xml version="1.0" encoding="utf-8"?>
<svg version="1.1" id="svg-turkey" xmlns="http://www.w3.org/2000/svg" xmlns:xlink="http://www.w3.org/1999/xlink" xml:space="preserve" viewBox="119.88100000000003 34.497 106.166 64.114">
    <g id="istanbul" data-city-code="34" data-phone-code="212" data-city-name="İstanbul">
        <path d="M187.613,66.733l-2.876,1.342l-2.063,2.218l0.561,1.719l0.062,0.188l-0.125,0.188l-2.002,3.78 l-0.031,0.062l-0.062,0.062l-1.657,1.78l-0.564,3l1.593,1.595l0.031,0.031l2.093,2.47l0.031,0.031l2.249,2.282l0.062,0.031 l3.499,1.877l0.156,0.094l0.062,0.156l1.03,2.439l3.593,1.533l1.376-2.53l0.031-0.094l1.221-3.937l0.657-2.156l0.031-0.188 l0.188-0.094l3.657-2.154h0.031l2.626-1.405l0.188-0.062l0.188,0.031l1.625,0.376l0.094,0.031l0.062,0.031l3.593,2.158 l2.219-0.53l3.032-1.529h0.031l2.595-1.249h0.031l3.689-2.123l0.627-2.875c-0.638-0.155-3.737-0.913-4.593-1.159 c-0.842-0.24-4.405-1.127-4.405-1.127l-7.437-1.629l-0.031-0.031h-0.031l-5.561-1.878v-0.031h-0.031l-5.624-2.347L187.613,66.733 z" style="fill: rgb(175, 175, 175); opacity: 1;"></path>
        <path d="M179.76,85.166l-0.062,0.688l-0.094,0.75l1.688,0.751l0.062,0.031l0.062,0.031l2.155,1.907l0.188,0.156 l-0.031,0.25l-0.252,2.906l-0.031,0.562l-0.562-0.094l-2-0.376l-0.156-0.031l-0.095-0.092l-1.374-1.282l-0.062-0.031 l-0.031-0.031l-1.374-1.907l-0.031-0.062l-0.031-0.062l-1.029-2.907l-0.188-0.531l0.594-0.125l2-0.374L179.76,85.166z" style="fill: rgb(175, 175, 175); opacity: 1;"></path>
        <path d="M136.272,39.497l-0.25,0.25l0.031,0.344l-0.344,0.031l-1.658,3.155l1.873,3.532l0.125,0.219l-0.125,0.25 l-2.408,4.53v0.031l-3.284,5.904v0.031l-4.098,6.686v0.031l-1.253,5.249l1.092,3.563l4.689-1.372h0.031h0.031l6.594-0.902h0.125 l0.125,0.031l2.874,1.158v-0.031c0,0,1.118,0.405,2.312,0.782c0.597,0.189,1.23,0.361,1.719,0.501 c0.245,0.07,0.433,0.118,0.594,0.156c0.161,0.039,0.312,0.062,0.25,0.062c0.178,0,0.291,0.05,0.438,0.094s0.321,0.088,0.5,0.156 c0.358,0.136,0.757,0.324,1.156,0.501c0.798,0.351,1.531,0.689,1.531,0.689l0.062,0.031l0.031,0.031l3.499,2.596v-0.062v-0.469 l0.469-0.031l2.656-0.124h0.406l0.094,0.406c0,0,0.122,0.564,0.249,1.219c0.105,0.539,0.182,1.038,0.218,1.469 c0.028,0.008,0.025,0.023,0.062,0.031c0.213,0.045,0.573,0.093,1,0.126c0.854,0.063,1.994,0.087,3.156,0.096 c2.325,0.017,4.656-0.059,4.656-0.059h0.219l0.125,0.125l0.781,0.656l1.312-0.718l0.094-0.031l0.094-0.031l3.188-0.248 l2.157-1.124l-0.594-0.344l-0.312-0.156l0.031-0.312l0.251-2.281l0.062-0.438h0.438l1.656,0.001h0.281l0.125,0.219l0.874,1.344 l1.782-1.249l0.626-2.719v-0.094l0.062-0.094l0.5-0.688l-0.687-2.281l-0.125-0.344l0.344-0.219l1.219-0.749l0.031-0.031 l1.439-2.03l0.062-0.094l0.532-1.219l-3.906-0.002h-0.094l-0.062-0.031l-4.311-1.502l-0.031-0.031h-0.031l-4.53-2.283 l-4.687-2.409l-5.436-2.784h-0.031l-5.529-3.534l-5.81-3.409l-0.031-0.031l-3.405-2.408h-0.031l-4.529-3.408l-0.031-0.031 l-0.031-0.031l-2.779-2.783L136.71,40.5l-0.031-0.062L136.272,39.497z" style="fill: rgb(175, 175, 175); opacity: 1;"></path>
    </g>
</svg>
