<?xml version="1.0" encoding="utf-8"?>
<svg version="1.1" id="svg-turkey" xmlns="http://www.w3.org/2000/svg" xmlns:xlink="http://www.w3.org/1999/xlink" xml:space="preserve" viewBox="159.62399999999997 97.427 47.37900000000002 22.39200000000001">
    <g id="yalova" data-city-code="77" data-phone-code="226" data-city-name="Yalova">
        <path d="M200.251,102.427l-0.906,0.781l-0.875,0.781l-0.156,0.125h-0.219l-2.25-0.126l-0.156-0.031 l-0.125-0.062l-0.906-0.656l-1.345,1.468l-0.125,0.156h-0.219l-15.594,0.116h-0.062l-3.688,0.467l-0.907,2l-0.094,0.188 l-0.219,0.094l-2.751,0.998l-2.156,0.873l-0.031,0.031h-0.062l-2.781,0.529l0.125,0.594l2.249,1.907l0.031,0.031l1.999,2.001 l3.875,0.127l1.876-1.124l1.439-2.53l0.156-0.219l0.25-0.031l1.781-0.124h0.125l0.156,0.062l3.155,1.721l2.75-0.123l4.312-0.123 l2.094-0.874l0.094-0.031h0.094l4.406,0.002l2.19-3.655v-0.031l0.752-2.875l0.062-0.25l0.25-0.094l2.939-0.998v0.031l0.219-0.094 l-0.812-0.531L200.251,102.427z" style="fill: rgb(175, 175, 175); opacity: 1;"></path>
    </g>
</svg>
