<?xml version="1.0" encoding="utf-8"?>
<svg version="1.1" id="svg-turkey" xmlns="http://www.w3.org/2000/svg" xmlns:xlink="http://www.w3.org/1999/xlink" xml:space="preserve" viewBox="290.23199999999997 46.877 58.81800000000004 47.92899999999995">
    <g id="zonguldak" data-city-code="67" data-phone-code="372" data-city-name="Zonguldak">
        <path d="M335.122,51.877l-2.407,1.124l-9.033,4.245l-0.062,0.031l-9.034,5.901l-0.062,0.031 l-0.062,0.031l-7.876,1.996l-4.564,3.342l-0.972,5.499l-0.031,0.094l-0.062,0.094l-2.411,3.405l-0.031,0.062l-0.031,0.031 l-3.252,2.904l3.092,3.502l2.749,1.94l8.844,0.63h0.031h0.031l3.156,0.533h0.031l3.656,0.877l0.438,0.094l-0.063,0.438 l-0.095,1.125c0.466-0.155,0.883-0.323,1.438-0.468c0.856-0.225,1.625-0.405,1.625-0.405h0.062h0.062l11.031,0.006h0.031 l3.439-1.06h0.062h0.094l1.469,0.001c-0.117-0.175-0.349-0.533-0.687-1.125c-0.207-0.362-0.415-0.738-0.561-1.094 c-0.147-0.356-0.314-0.652-0.187-1.094c0.074-0.258,0.218-0.534,0.406-0.906c0.188-0.372,0.431-0.809,0.657-1.219 c0.421-0.769,0.765-1.384,0.813-1.469l0.158-3.438l0.19-3.469l0.031-0.281l0.219-0.125l6.596-3.902l-0.718-1.812l-0.031-0.094 l-0.031-0.094l-0.06-3.031l-0.031-0.125l0.062-0.094l0.782-1.594l-2.154-2.813l-0.062-0.062v-0.094l-0.718-2.312l-0.03-0.063 v-0.031l-0.248-2.844l-5.78-2.565L335.122,51.877z" style="fill: rgb(175, 175, 175); opacity: 1;"></path>
    </g>
</svg>
